<?xml version="1.0" encoding="UTF-8"?>
<svg id="Layer_2" data-name="Layer 2" xmlns="http://www.w3.org/2000/svg" viewBox="0 0 335.18 307.99">
  <defs>
    <style>
      .cls-1 {
        fill: blue;
      }
    </style>
  </defs>
  <g id="Layer_1-2" data-name="Layer 1">
    <g>
      <path class="cls-1" d="m15.37,122.42c-4.27,8.88-7.9,18.13-10.42,27.67S.91,169.46.26,179.29s.04,20.01,1.43,30c1.17,8.45,3.09,16.92,6.14,24.91s6.81,15.68,11.82,22.66c4.95,6.9,10.47,13.34,16.89,18.91,13.05,11.34,28.08,19.58,44.52,24.9,16.15,5.22,33.47,7.51,50.42,7.32,17.2-.19,34.53-2.86,51.11-7.39s32.91-11.14,48.26-19.09c15-7.77,29.09-17.15,42.19-27.8,13.12-10.67,24.57-23.07,34.51-36.74,9.67-13.31,17.34-28.25,22.2-43.98,2.57-8.32,4.09-16.89,4.95-25.55.76-7.61.64-15.28-.35-22.86-1.2-9.18-3.03-18.06-6.37-26.72-3.1-8.05-6.78-15.85-11.38-23.15-8.28-13.15-18.77-25.04-30.83-34.84-12.26-9.97-25.56-18.38-40.1-24.62-14.55-6.25-29.52-11-45.23-13.21C192.11.85,183.79-.02,175.37,0s-17.61.96-26.32,2.38c-16.2,2.63-31.86,8.12-46.52,15.46s-28.62,17.35-40.64,28.79c-10.34,9.84-19.63,21.1-26.81,33.46-6.01,10.35-11.55,21.08-16.24,32.1-1.83,4.31-4.34,9.09-4.99,13.82-.63,1.99-.71,3.99-.27,5.98.09,2,.68,3.86,1.78,5.58,1.82,3.11,5.39,6.08,8.96,6.89,3.84.87,8.15.69,11.56-1.51,3.03-1.96,6.38-5.21,6.89-8.96.47-3.43,2.03-6.8,3.37-9.97l-1.51,3.58c5.31-12.54,11.64-24.89,18.81-36.47,1.89-3.05,3.97-5.94,6.16-8.77l-2.35,3.04c8.14-10.48,17.57-19.9,28.06-28.03l-3.04,2.35c10.52-8.11,22.04-14.86,34.27-20.05l-3.58,1.51c12.08-5.09,24.77-8.62,37.75-10.4l-3.99.54c12.92-1.73,25.97-1.65,38.88.08l-3.99-.54c14.33,1.96,28.36,5.85,41.69,11.48l-3.58-1.51c12.48,5.3,24.3,12.1,35.04,20.38l-3.04-2.35c9.17,7.11,17.49,15.28,24.6,24.46l-2.35-3.04c6.2,8.07,11.42,16.86,15.39,26.24l-1.51-3.58c3.4,8.14,5.77,16.66,6.97,25.41l-.54-3.99c1.18,8.89,1.13,17.88-.05,26.77l.54-3.99c-1.4,10.14-4.24,20-8.21,29.43l1.51-3.58c-4.96,11.69-11.58,22.6-19.31,32.65l2.35-3.04c-9.53,12.32-20.71,23.31-33.02,32.84l3.04-2.35c-12.39,9.55-25.79,17.82-39.82,24.73-4.13,2.03-8.33,3.95-12.57,5.74l3.58-1.51c-17.15,7.21-35.15,12.42-53.6,14.92l3.99-.54c-14.5,1.93-29.21,2.15-43.73.2l3.99.54c-11.55-1.59-22.95-4.51-33.7-9.03l3.58,1.51c-8.39-3.57-16.32-8.13-23.56-13.67l3.04,2.35c-6.49-5.01-12.35-10.78-17.37-17.26l2.35,3.04c-4.41-5.75-8.1-11.99-10.95-18.66l1.51,3.58c-3.75-8.89-6-18.42-7.31-27.96l.54,3.99c-1.53-11.48-1.49-23.11.04-34.59l-.54,3.99c1.62-11.87,4.82-23.46,9.47-34.5l-1.51,3.58c.86-2.01,1.76-3.99,2.7-5.96,1.77-3.69,2.63-7.49,1.51-11.56-.96-3.48-3.65-7.25-6.89-8.96-3.48-1.84-7.7-2.76-11.56-1.51-3.55,1.15-7.29,3.41-8.96,6.89h0Z"/>
      <path class="cls-1" d="m163.14,28.91c1.48,20.22,1.02,40.53-.91,60.7-.54,5.69-1.21,11.36-1.96,17.02l.27-1.99c-3.27,24.27-8.36,48.25-14.26,72.01s-12.74,47.7-19.41,71.46c-3.75,13.36-7.47,26.72-10.99,40.14-.99,3.79,1.26,8.32,5.24,9.23s8.16-1.18,9.23-5.24c4.45-16.94,9.21-33.8,13.95-50.67,4.74-16.83,9.46-33.67,13.83-50.6,4.37-16.92,8.4-33.93,11.72-51.09,3.37-17.43,6.03-35.02,7.62-52.7s2.03-34.58,1.1-51.87c-.12-2.13-.25-4.26-.41-6.4-.29-3.9-3.24-7.69-7.5-7.5-3.82.17-7.81,3.31-7.5,7.5h0Z"/>
      <path class="cls-1" d="m154.36,143.46c-16.72.84-33.45,1.45-50.19,1.83-16.74.38-33.48.54-50.22.47-9.45-.04-18.9-.16-28.34-.34-3.92-.08-7.68,3.5-7.5,7.5s3.29,7.42,7.5,7.5c16.74.33,33.48.43,50.22.31s33.48-.48,50.21-1.06c9.44-.33,18.88-.73,28.32-1.2,3.91-.2,7.69-3.31,7.5-7.5-.17-3.9-3.3-7.71-7.5-7.5h0Z"/>
      <path class="cls-1" d="m155.85,161.03c21.26.29,42.53.77,63.78,1.47,20.57.68,41.13,1.56,61.68,2.57,12.17.6,24.34,1.25,36.51,1.92,3.92.22,7.67-3.6,7.5-7.5-.19-4.25-3.3-7.27-7.5-7.5-21.24-1.17-42.48-2.26-63.72-3.18s-41.13-1.59-61.7-2.09c-12.18-.3-24.37-.52-36.55-.69-3.92-.05-7.68,3.49-7.5,7.5s3.29,7.44,7.5,7.5h0Z"/>
      <path class="cls-1" d="m147.45,166.12c10.17-2.9,18.92-8.8,27.23-15.15s17.31-13.28,26.07-19.79c17.77-13.21,35.81-26.04,54.11-38.49,10.35-7.04,20.78-13.95,31.29-20.74,3.29-2.13,4.95-6.75,2.69-10.26-2.12-3.29-6.74-4.97-10.26-2.69-17.79,11.49-35.35,23.33-52.66,35.53s-34.51,24.83-51.37,37.77c-8.63,6.62-17.13,13.79-27.21,18.12l1.79-.76c-1.86.78-3.74,1.45-5.68,2-3.77,1.08-6.49,5.35-5.24,9.23s5.18,6.39,9.23,5.24h0Z"/>
      <path class="cls-1" d="m144.15,152.32c-15.52,8.06-30.83,16.5-44.42,27.6-3.24,2.65-6.36,5.46-9.31,8.44-3.12,3.17-6.03,6.55-9.35,9.52-.79.71-1.62,1.38-2.44,2.05-.75.62,1.22-.91.44-.34-.18.14-.36.27-.55.41-.49.36-.98.72-1.48,1.07-1.86,1.32-3.78,2.56-5.72,3.77-3.74,2.35-7.5,4.66-11.27,6.95-8.58,5.19-17.33,10.13-26.58,14.04l1.79-.76c-2.8,1.17-5.63,2.25-8.51,3.2-3.72,1.24-6.53,5.23-5.24,9.23,1.2,3.7,5.24,6.56,9.23,5.24,9.54-3.17,18.66-7.54,27.42-12.46,8.21-4.61,16.35-9.5,24.19-14.71,4.39-2.91,8.56-6.16,12.26-9.9,3.29-3.33,6.4-6.83,9.83-10.03,1.64-1.52,3.32-3,5.04-4.43.83-.69,1.67-1.37,2.52-2.04.22-.18.45-.37.68-.53-.09.06-1.47,1.12-.49.38.46-.35.92-.7,1.38-1.04,3.65-2.73,7.43-5.28,11.29-7.71,8.68-5.46,17.74-10.27,26.83-14.99,3.49-1.81,4.81-6.97,2.69-10.26-2.29-3.55-6.53-4.63-10.26-2.69h0Z"/>
      <path class="cls-1" d="m75.7,59.21c.37.47.75.94,1.12,1.41.19.24.37.47.56.71.11.15,1.04,1.35.25.32-.7-.91-.07-.08.11.14.19.24.37.48.55.73.42.55.83,1.1,1.25,1.64,1.58,2.09,3.13,4.2,4.67,6.33,3.13,4.32,6.19,8.68,9.25,13.04s5.81,8.31,8.77,12.43c2.71,3.77,5.48,7.48,7.9,11.45,9.33,15.34,15.26,32.58,27.4,46.13,2.73,3.04,5.85,5.57,8.86,8.3,2.6,2.35,5.06,4.87,7.41,7.47,2.55,2.82,4.98,5.75,7.34,8.73.28.36.56.72.84,1.08.14.18.28.36.42.54,0,0-1.23-1.6-.54-.7.63.83,1.27,1.66,1.89,2.49,1.2,1.6,2.39,3.22,3.57,4.85,10.16,14.03,19.57,28.59,30.17,42.31,5.4,6.98,11.03,13.78,17.26,20.04,2.91,2.93,5.95,5.74,9.13,8.37,4.21,3.49,8.95,7.21,14.49,8.19,1.54.27,3.09.49,4.65.35,2.44-.22,4.16-.77,6.38-1.79,1.61-.74,2.99-2.84,3.45-4.48.49-1.8.27-4.19-.76-5.78s-2.57-3.01-4.48-3.45c-2.07-.47-3.86-.13-5.78.76l-.36.17,1.79-.76c-.73.29-1.45.49-2.23.6l1.99-.27c-.77.07-1.51.06-2.28-.02l1.99.27c-1.19-.18-2.31-.51-3.42-.96l1.79.76c-1.02-.44-2.01-.95-2.95-1.53-.48-.29-.95-.6-1.42-.92-.23-.16-.46-.32-.69-.49s-1.26-.95-.24-.16c1.08.84-.42-.34-.63-.51-.37-.3-.74-.61-1.11-.92-.79-.66-1.56-1.33-2.33-2-3.03-2.67-5.92-5.48-8.7-8.4s-5.48-5.97-8.08-9.07c-1.33-1.6-2.65-3.21-3.94-4.84-.63-.79-1.25-1.59-1.88-2.39-.29-.38-.83-1.11.48.62-.15-.2-.31-.4-.46-.6-.31-.4-.62-.81-.92-1.21-9.92-13.08-18.84-26.88-28.49-40.16-4.67-6.43-9.51-12.78-14.81-18.71-2.28-2.55-4.66-5.03-7.18-7.36-2.76-2.56-5.73-4.87-8.33-7.6-1.45-1.52-2.82-3.12-4.12-4.77-.31-.39-.73-1.11.48.62-.14-.21-.31-.4-.46-.61-.3-.41-.6-.81-.89-1.22-.59-.82-1.16-1.65-1.72-2.5-2.31-3.48-4.38-7.12-6.33-10.81-3.94-7.42-7.45-15.07-11.63-22.37-4.51-7.87-10.14-15.02-15.34-22.44-5.83-8.31-11.61-16.67-17.75-24.76-1.76-2.32-3.54-4.62-5.35-6.9-1.12-1.4-3.6-2.2-5.3-2.2-1.84,0-4.04.82-5.3,2.2s-2.29,3.31-2.2,5.3c.09,2.11.89,3.66,2.2,5.3h0Z"/>
      <path class="cls-1" d="m172.08,156.02c-1.32-.08.81.27-.47-.05-.41-.1-.82-.19-1.22-.31-.68-.2-1.34-.45-2-.71-.05-.02-1.36-.55-.51-.2-.62-.26-1.24-.53-1.87-.79-.79-.33-1.58-.65-2.4-.91-2.81-.88-6.13-1.08-8.93-.05-3.82,1.4-6.4,4.62-6.78,8.69-.31,3.34,1.31,6.39,3.36,8.89,1.93,2.37,4.55,4.33,7.25,5.76,3.11,1.65,6.44,3.25,9.89,4.06,3.83.9,7.96.89,11.53-.9,2.4-1.21,4.48-3.38,5.73-5.74,3.02-5.66,2.07-13.13-4.27-16.02-5.28-2.41-12.28-2.51-17.53.01-5.75,2.77-8.19,10.25-4.39,15.61,1.8,2.54,4.5,4.49,7.6,5.04,3.64.64,7.04-.45,9.76-2.93,4.58-4.18,5.72-11.56,3.52-17.19-2.38-6.1-7.49-10.88-13.44-13.49-6.48-2.84-13.72-3.47-20.21-.29-5.02,2.46-8.6,7.68-9.59,13.13-1.14,6.29.7,12.36,5.89,16.28s12.27,4.08,18.38,4.52c6.83.5,14.17.04,20.06-3.84,5.47-3.6,9.45-9.54,9.25-16.27-.41-13.43-14.72-22.18-26.15-25.73-6.69-2.08-14-2.32-20.5.5-5.64,2.44-10.14,7.12-12.47,12.78-1.09,2.65-1.59,5.59-1.38,8.45.16,2.25,1.59,4.11,3.9,4.42,2.1.28,4.45-1.03,4.94-3.22.15-.68.32-1.36.53-2.02.1-.31.21-.61.32-.91.35-1.01-.46.86.03-.05.23-.42.43-.85.68-1.25.1-.15.43-.5.45-.68-.44.56-.51.65-.22.29.11-.13.22-.26.34-.39.29-.31.6-.59.92-.87.67-.6-.91.52-.12.1.22-.12.42-.27.63-.4s.43-.24.66-.36c.41-.21.93-.19-.16.04.49-.1.98-.36,1.47-.5.52-.15,1.04-.27,1.57-.36.23-.04.46-.06.68-.12.63-.15-1.2.12-.21.03,1.2-.12,2.39-.2,3.59-.22,2.65-.04,5.31.1,7.96.22s5.2.3,7.79.57c1.16.12-1-.16.14.02.33.05.66.1.99.16.55.09,1.09.19,1.63.31,1.32.28,2.62.62,3.9,1.07.25.09.49.19.74.27,1.02.37-.89-.44.08.03.56.27,1.11.54,1.65.85.44.26.86.55,1.29.83.88.57-.73-.66.06.04.31.27.62.53.92.82.37.36.71.75,1.06,1.14.71.79-.5-.81.07.1.17.28.36.54.53.82.37.6.68,1.23.97,1.87.38.8.13.29.06.11.22.54.42,1.08.61,1.63.28.83.53,1.67.73,2.51.1.42.17.85.27,1.28.03.14.15.89.04.09.12.85.16,1.72.16,2.58,0,.43-.04.85-.05,1.28-.06.54-.05.57.02.07-.03.21-.07.42-.11.63-.15.77-.39,1.51-.61,2.26-.38,1.29.42-.73-.11.28-.16.3-.3.61-.47.9-.27.49-.59.93-.89,1.4.62-.94.05-.07-.11.12-.28.33-.58.65-.89.95-.23.23-.47.45-.72.66-.04.04-.87.71-.3.27s-.29.2-.34.23c-.27.19-.55.37-.83.54-.57.35-1.15.67-1.74.97-.25.12-.5.24-.76.36-1.07.49.54-.17-.33.14-1.19.42-2.37.82-3.59,1.13-.67.17-1.34.32-2.02.45-.34.07-.68.13-1.01.18-.26.04-1.73.39-.5.08-1.25.31-2.72.27-4,.33-1.76.08-3.53.1-5.29.03-.81-.03-1.61-.09-2.42-.16-.37-.03-.73-.07-1.09-.12.95.11-.47-.08-.54-.09-1.73-.29-3.44-.69-5.11-1.24-.42-.14-.83-.3-1.24-.44-1.32-.46.72.37-.55-.22-.6-.28-1.19-.56-1.76-.88-.64-.35-1.26-.73-1.87-1.14-.3-.21-.6-.42-.9-.64.88.63-.37-.32-.53-.45-1.03-.89-1.95-1.88-2.83-2.91-.79-.92.47.75-.2-.26-.14-.21-.28-.4-.42-.61-.48-.72-.91-1.46-1.3-2.23-.17-.33-.32-.66-.47-1,.41.95,0-.08-.09-.3-.28-.82-.51-1.66-.68-2.51-.04-.19-.18-1.41-.07-.29-.04-.4-.07-.8-.09-1.21-.02-.66-.12-1.58.09-2.22-.37,1.1,0,.14.05-.14.09-.44.2-.88.32-1.31.06-.22.13-.43.2-.65.08-.23.67-1.6.16-.5.34-.72.69-1.42,1.1-2.09.15-.24.3-.48.46-.71.14-.2.92-1.2.19-.31.92-1.13,1.94-2.16,3.08-3.07-.91.72-.02.04.16-.08.36-.24.73-.48,1.11-.69.28-.16.57-.31.86-.46.34-.17.89-.66.11-.07.51-.39,1.52-.53,2.13-.67.17-.04.78-.26.93-.18-.67.08-.76.1-.25.04l.32-.02c.54-.03,1.74-.22,2.22.05l-.56-.07c.21.04.42.08.63.12.43.1.84.22,1.26.35,2.24.73,5.01-.85,5.54-3.14.56-2.47-.74-4.76-3.14-5.54-6.68-2.17-13.82.33-18.81,4.97-5.29,4.9-7.88,12.05-6.86,19.17s5.97,13.64,12.04,17.6c6.72,4.39,15.14,5.59,23.02,5.34,6.62-.21,13.53-1.29,19.3-4.74,6.57-3.93,10.51-10.88,10.11-18.59-.39-7.58-3.58-15.25-9.89-19.7-5.12-3.61-11.75-4.56-17.83-5.05-5.8-.46-11.84-.92-17.63-.14-5.71.77-10.94,3.61-13.43,9.03-.72,1.57-1.29,3.17-1.66,4.86l8.84,1.2c-.04-.6-.06-1.2-.04-1.8,0-.24.03-.47.05-.71.06-.88-.04.03-.03.15-.09-1.03.59-2.43.95-3.37-.39,1.03.23-.41.37-.67.25-.46.52-.92.82-1.36.2-.3.95-1.24.34-.51.42-.5.84-.99,1.3-1.45.37-.38.76-.74,1.17-1.09.18-.16.36-.3.55-.46-.74.62-.13.1.08-.05.91-.65,1.88-1.22,2.89-1.71.03-.02,1.09-.46.42-.2s.41-.14.44-.15c.44-.15.88-.29,1.33-.41.64-.17,1.29-.29,1.95-.41.16-.03.87-.07.08-.01.43-.03.85-.08,1.28-.1,1.29-.07,2.57.01,3.85.1.15.01.88.11.09,0,.28.04.57.09.85.14.78.14,1.56.31,2.33.5,1.28.32,2.53.72,3.77,1.17.35.13.69.26,1.03.39.1.04.8.32.15.05.68.28,1.35.6,2.02.92,2.31,1.11,4.56,2.36,6.66,3.83.25.18,1.33.98.61.42.5.39.99.79,1.46,1.21.9.79,1.75,1.63,2.54,2.53.21.23.4.47.6.71-.11-.12-.51-.71-.02-.03.32.45.63.9.92,1.37s.55.94.79,1.43c.11.21.21.43.3.65-.43-.97-.01.03.06.26.19.57.31,1.15.46,1.73.06.23.09.86,0-.13.02.24.05.48.06.72.03.55.03,1.1,0,1.66-.02.28-.19,1.09,0,.1-.07.36-.14.72-.23,1.07-.12.47-.28.92-.45,1.37.33-.92.06-.16-.06.07-.13.27-.28.53-.43.79-.24.41-.51.81-.78,1.2.53-.78.09-.12-.08.08-.23.28-.48.54-.73.8-.38.39-.78.75-1.19,1.11-.62.55-.07.07.06-.03-.24.18-.49.36-.74.52-.45.3-.91.59-1.39.85-.21.12-.42.23-.64.34-.37.19-.95.44-.23.14-1.15.47-2.35.82-3.57,1.08-.3.06-.6.11-.9.18-1.41.3.45-.02-.39.07s-1.68.16-2.52.2c-2.86.12-5.73-.1-8.57-.36-1.22-.11-2.44-.23-3.66-.37-.25-.03-1.11-.17-.11-.01-.25-.04-.5-.08-.75-.12-.62-.1-1.23-.22-1.85-.36-.54-.13-1.08-.27-1.62-.44-.29-.09-.58-.2-.87-.3-.22-.07-.72-.38.06.03-.49-.26-.98-.48-1.45-.77-.26-.16-.51-.33-.76-.51.63.46.04,0-.22-.24-.18-.17-.35-.36-.53-.54-.6-.58.07.16.12.2-.31-.21-.64-.96-.81-1.28-.04-.08-.29-.5-.27-.54-.01.03.31.9.11.23-.16-.54-.3-1.06-.44-1.61-.23-.92-.04.12,0,.14-.03,0-.05-.65-.05-.61-.03-.47-.03-.93,0-1.4.01-.26.04-.52.06-.78.05-.68-.12.14-.04.26-.15-.21.26-1.27.34-1.55.13-.46.29-.91.44-1.36.18-.54-.06-.61-.03.05,0-.11.25-.52.28-.57.21-.42.45-.84.7-1.24.14-.22.29-.44.44-.66.49-.75-.6.62.07-.08.28-.3.55-.62.85-.91.17-.17.43-.33.57-.52.36-.47-.88.57-.06.04.39-.26.78-.52,1.19-.75.29-.16.59-.29.88-.45.29-.14.24-.11-.18.06.18-.07.36-.14.55-.2.55-.19,1.11-.35,1.68-.48.25-.06.51-.1.76-.15,1.19-.26-.59,0,.15-.02,1.25-.03,2.46-.04,3.71.03-.88-.05-.23-.04-.02,0,.33.06.65.12.98.19.59.12,1.17.27,1.74.44s1.14.41,1.71.59c.72.23-.92-.45.23.09.36.17.73.34,1.09.53,1.05.54,2.05,1.15,3.01,1.83.2.14.4.29.6.44-.7-.52-.16-.12-.03,0,.52.46,1.04.91,1.53,1.4.4.4.77.83,1.15,1.25.12.14.49.68,0-.02.15.2.29.41.44.61.35.52.68,1.06.96,1.61.12.22.22.45.33.68-.46-.88.05.16.11.33.18.54.32,1.08.44,1.63l.03.16c.08.51.08.44-.02-.2.06.09.04.6.05.67.02.51-.03,1.01-.03,1.51,0,.68.25-1.09,0-.03-.07.33-.13.66-.22.98-.1.37-.17.97-.41,1.27.58-.71.17-.35-.02-.03-.14.23-.25.48-.4.71-.07.11-.27.5-.35.54.32-.14.5-.55.11-.16-.18.19-.37.38-.55.57-.52.55-.04.29.07,0-.06.16-.51.32-.66.42l-.14.08c-.44.22-.37.2.22-.06-.04.07-.57.18-.59.19-.86.32.3-.13.3,0,0,.04-.68.02-.76.02-.98.05.18-.07.14.04,0,.02-.64-.16-.6-.15-.15-.04-.3-.09-.44-.14-.32-.12-.2-.06.36.16-.06.03-1.58-.83-.87-.46.59.31-.15-.14-.26-.25-.15-.14-.28-.3-.43-.45-.63-.64.16.18.14.18-.12,0-.3-.57-.39-.66-.35-.33.23.96.04.09l-.09-.29c-.1-.49-.11-.39,0,.29-.03,0-.03-.66-.03-.62-.08-.95.02.31-.06.25-.06-.04.16-.64.18-.73.19-.88.19.15-.08.14,0,0,.29-.52.27-.49.33-.67-.08.23-.23.24.04,0,.3-.34.36-.41.64-.66.26-.01-.09-.01.18,0,1.01-.62,1.19-.73.59-.35-.21.26-.29.1,0,0,.48-.18.55-.2.47-.16.96-.29,1.45-.4.2-.04.4-.07.6-.12,1.04-.21-1.03.06.03,0,.94-.06,1.87-.1,2.81-.06.46.02.92.09,1.38.11.66.03-1.14-.22-.16-.01.38.08.77.13,1.16.22.52.11,1.02.27,1.53.4,1.09.28-.34-.29.19.07.21.14.45.27.67.39.62.33-.63-.49.08.1.48.4-.28.08-.16-.27,0,0,.25.41.3.46.52.69-.21-.87-.01-.09.05.19.09.48.18.65.25.49-.02-1.15-.03-.25,0,.21-.13.98-.02,1.12-.24-.29.23-1.02.01-.21-.06.23-.11.47-.18.71-.06.19-.12.37-.18.56-.29.94.47-.84-.01.02-.22.39-.45.78-.68,1.17-.42.71.11.14.08-.07,0,.05-.4.46-.39.45-.13.15-.27.29-.42.42-.16.15-.54.75-.22.23.28-.47,0,0-.26.16-.1.06-.76.42-.76.42-.02-.07,1.09-.34.28-.12-.24.06-.47.15-.71.21-.29.07-.58.14-.87.19.81-.14-.12,0-.33,0-.66.03-1.32,0-1.97-.06.75.06.03,0-.12-.03-.44-.1-.88-.18-1.31-.29-.74-.19-1.46-.42-2.17-.68-.29-.1-.58-.22-.86-.33-.85-.33-.39-.16-.21-.08-1.38-.59-2.73-1.26-4.05-1.96-.97-.52-1.9-1.11-2.79-1.75-.69-.49-.12-.1.01.01-.24-.2-.48-.4-.72-.61-.46-.41-.91-.85-1.33-1.31-.2-.22-.4-.45-.59-.69.11.13.49.73.07.05-.27-.44-.52-.88-.76-1.33-.29-.54.22.99.04.02-.02-.09-.19-.59-.16-.61.13-.08,0,1.02.05.27.06-1.1-.19-.13-.07-.04.04.03.21-1.15.06-.38-.13.65.16-.25.22-.38.18-.37.45-.28-.11.12.05-.04.35-.43.46-.45l-.4.32c.13-.09.27-.17.41-.24.62-.24-1.08.27-.06,0,.21-.05.41-.13.62-.18.16-.04.32-.07.48-.1.34-.06.22-.04-.38.06.07.09,1.39,0,1.51,0h.17c.51.07.45.06-.19-.02.1-.03.6.12.66.13.46.11.92.25,1.37.4.34.12.67.24,1,.37.14.06,1.22.49.85.34l-.14-.06c.49.21.98.41,1.47.62.26.11.53.22.79.33.59.24,1.19.47,1.79.68,1.52.51,3.09.77,4.69.87,2.35.15,4.6-2.18,4.5-4.5-.11-2.57-1.98-4.34-4.5-4.5h0Z"/>
      <path class="cls-1" d="m168.79,164.8c-1.35-.51-2.82.11-3.5,1.35-.38.7-.19,1.65.54,2.05,2.91,1.59,6.17,1.66,9.19.33.88-.39.95-1.76.3-2.36-3.33-3.08-7.72-4.36-12.19-3.7-1.06.16-1.51,1.85-.66,2.51,2.22,1.73,4.8,2.38,7.58,1.84,1.32-.26,1.39-2.1.36-2.74-2.61-1.62-5.52-2.59-8.58-2.87-2.56-.23-5.48,0-7.32,2.01-.57.62-.56,1.5,0,2.12,3.02,3.34,7.49,5.16,11.99,4.86,1.17-.08,2.14-1.66,1.06-2.56-4.33-3.61-9.95-5.4-15.57-4.7-1.27.16-2,1.53-1.06,2.56,2.96,3.26,7.8,4.04,11.71,2.14.86-.42.97-1.73.3-2.36-2.06-1.92-4.62-3.2-7.42-3.61-2.4-.36-5.87-.35-7.83,1.33-.99.85-1.35,2.1-.96,3.36.43,1.41,1.67,2.12,2.97,2.59,3.12,1.12,6.53,1.19,9.74.41,1.09-.26,1.47-1.74.66-2.51-2.05-1.94-4.58-3.34-7.35-3.92-2.43-.51-5.72-.86-7.32,1.44-.3.43-.25,1.08,0,1.51,2.32,3.99,7.33,4.91,11.53,5.52,2.63.38,5.27.59,7.93.58,2.15,0,4.63,0,6.17-1.77.5-.57.66-1.58,0-2.12-2.52-2.1-5.48-3.5-8.74-3.94-1.42-.19-2.91-.27-4.24.35-1.41.66-2.35,1.98-1.55,3.49.69,1.29,2.07,1.88,3.39,2.31,1.74.56,3.53.99,5.34,1.3,3.68.63,7.41.78,11.13.43.6-.06,1.34-.42,1.45-1.1.69-4.46-4.84-6.4-8.19-7.58-4.08-1.44-8.8-2.28-13.13-1.83-1.59.17-3.26.73-4.04,2.23-1.02,1.96,1.29,3.76,2.84,4.54,4.11,2.06,9.06,2.7,13.6,2.33.95-.08,1.73-.9,1.45-1.9-.55-1.96-2.25-2.86-4-3.6-2.13-.9-4.33-1.6-6.59-2.06s-4.42-.7-6.66-.74c-2-.03-4.45-.13-6.07,1.26-1.43,1.23-1.83,3.33-.6,4.84s3.52,2.08,5.36,2.33c.94.13,1.89.21,2.72-.31s1.23-1.54.99-2.49c-.47-1.9-2.58-2.89-4.35-3.17s-5.26-.04-5.3,2.44c-.04,2.31,2.94,3.33,4.79,3.49,1.19.1,1.8-1.33,1.3-2.26-1.53-2.81-5.11-4.21-8.12-3.02-.95.38-1.61,1.7-.66,2.51,2.74,2.35,6.28,3.54,9.89,3.09.97-.12,2.07-1.23,1.3-2.26-2.27-3-5.77-3.92-9.39-4.08-1.34-.06-3.65-.39-4.65.73-.65.72-.53,1.78-.58,2.68-.05.97-.09,1.94-.12,2.91-.04,1.15-.05,2.3-.06,3.44,0,.29-.02.6,0,.89,0,.06-.02.13,0,.19-.16-.82,2.19-.66,2.46-.92.1-.1.27.44.13.15-.05-.11-.13-.22-.2-.31-.25-.37-.53-.73-.83-1.06-.23-.25-.51-.45-.73-.7l.39,1.46h0c-.62.35-1.23.7-1.85,1.04-.4-.12-.35-.16-.06,0s.62.31.93.45c1.22.57,2.48,1.08,3.74,1.57,1.06.41,1.99.88,3.13.73.81-.1,1.61-.3,2.4-.51,4.03-1.06,8.33-2.29,12.06-4.19,2.41-1.23,2.54-5.36-.4-6.04-1.23-.28-2.4,1.04-1.69,2.2,2.07,3.38,6.57,4.98,10.39,4.15,1.85-.4,3.51-1.6,4.13-3.43.55-1.64.23-3.56-1.13-4.7-.7-.59-1.87-.62-2.36.3-.62,1.18,0,2.41,1.3,2.72s2.69-.64,3.71-1.38c1.07-.79.9-2.27-.36-2.74-2.85-1.06-5.76-1.88-8.75-2.46-1.89-.36-2.69,2.53-.8,2.89,2.98.57,5.9,1.39,8.75,2.46l-.36-2.74c-.32.24-.64.46-.98.66l-.34.19c-.58.17-.47.36.33.57v1.51l.09-.17-2.36.3c.65.54.66,1.39.19,2.08-.62.92-1.93,1.13-2.95,1.14-2.25.01-4.71-.88-5.92-2.87l-1.69,2.2c.15.04.15,0,0-.12.06.12.08.25.05.38,0,.11-.25.44.12.03-.14.16-.46.26-.65.35-.74.36-1.59.67-2.46.99-2.32.86-4.68,1.65-7.06,2.35-1,.29-2,.58-3.02.8-.15.03-.3.06-.45.09-.41.08-.04-.04-.2.03s-.53-.11.02.05c-.31-.09-.64-.23-.94-.34-1.41-.53-2.82-1.08-4.19-1.72-.46-.22-.93-.54-1.42-.68-.83-.24-1.57.3-1.85,1.05h0c-.19.52.06,1.07.39,1.46.21.25.5.46.73.7.3.32.17.17.45.59.14.21.26.44.43.62.72.73,1.93.62,2.45-.28.28-.48.24-1.09.24-1.63,0-1,.01-2,.04-3,.02-.81.05-1.62.08-2.43.02-.5.2-1.24.08-1.73.15-.69-.05-.67-.62.06.09-.02.19-.02.28-.02.67.23,1.82-.02,2.54,0,.83.04,1.66.11,2.47.27,1.63.33,3.29.95,4.33,2.32l1.3-2.26c-2.81.36-5.6-.35-7.77-2.21l-.66,2.51c1.81-.72,3.79-.1,4.74,1.64l1.3-2.26c-.3-.03-.6-.09-.88-.19-.14-.05-.7-.46-.82-.43l-.38.8c.19-.07.39-.12.59-.15.33-.06.67-.08,1.01-.07.61.03,1.21.19,1.76.47.11.05.63.53.69.52l.38-.78c-.2,0-.39-.02-.59-.04-.8-.09-3.23-.41-3.63-1.27-.53-1.14,2.16-1.2,2.76-1.22,2.87-.09,5.74.2,8.53.87,1.46.35,2.9.79,4.3,1.33.96.37,2.78.86,3.1,1.99l1.45-1.9c-2.64.22-5.29.08-7.87-.52-2-.47-5.05-1.07-6.07-3.07l.15,1.16c.38-1.1,3.39-.75,4.2-.73,2,.05,3.98.3,5.93.75s3.86,1.06,5.69,1.87c.97.43,4.23,1.61,4,3.07l1.45-1.1c-3.13.3-6.31.27-9.43-.18-1.51-.22-3.01-.53-4.49-.93-.84-.23-3.09-.51-3.36-1.54l-.15,1.16c.78-1.2,3.73-.34,4.75-.06,1.91.53,3.7,1.46,5.22,2.73v-2.12c-1.1,1.27-3.49.91-4.99.88-2.23-.03-4.45-.2-6.66-.53-3.16-.48-7.49-1.02-9.27-4.07v1.51c.35-.5,1.68-.31,2.19-.28.98.04,1.94.23,2.88.51,1.84.55,3.49,1.54,4.88,2.86l.66-2.51c-2.04.49-4.16.58-6.23.13-.58-.12-2.45-.37-2.73-.98s.67-.67,1.13-.8c3.51-.93,7.36.11,10.01,2.57l.3-2.36c-2.74,1.33-6.06.55-8.08-1.67l-1.06,2.56c4.81-.6,9.7.7,13.45,3.82l1.06-2.56c-3.77.25-7.33-1.18-9.87-3.98v2.12c1.36-1.48,3.8-1.32,5.64-1.09,2.37.29,4.61,1.15,6.63,2.41l.36-2.74c-1.61.32-3.35-.05-4.66-1.06l-.66,2.51c3.35-.49,6.8.65,9.27,2.93l.3-2.36c-1.99.88-4.27.7-6.16-.33l.54,2.05c-.14-.09-.11-.09.11.03,1.8.69,2.59-2.21.8-2.89h0Z"/>
      <path class="cls-1" d="m37.8,106.44c1.93,0,1.93-3,0-3s-1.93,3,0,3h0Z"/>
    </g>
  </g>
</svg>